<?xml version="1.0" encoding="utf-8"?>
<!-- Generator: Adobe Illustrator 18.1.0, SVG Export Plug-In . SVG Version: 6.00 Build 0)  -->
<!DOCTYPE svg PUBLIC "-//W3C//DTD SVG 1.1//EN" "http://www.w3.org/Graphics/SVG/1.1/DTD/svg11.dtd">
<svg version="1.1" id="Layer_1" xmlns="http://www.w3.org/2000/svg" xmlns:xlink="http://www.w3.org/1999/xlink" x="0px" y="0px"
	 viewBox="0 0 400 300" enable-background="new 0 0 400 300" xml:space="preserve">
<g>
	<g>
		<path fill="#00B1E5" d="M79.2,77.7h9.7L67,150.8h-9.7L79.2,77.7z"/>
		<path fill="#00B1E5" d="M99,77.7h9.7l-21.9,73.1h-9.7L99,77.7z"/>
	</g>
	<path fill="#4E4E56" d="M118.8,152.2v-49.8h23.9v7.5h-15.3v12.8h11.5v7.5h-11.5v22.1H118.8z"/>
	<path fill="#4E4E56" d="M148.3,152.2v-49.8h8.6v42.4h13.5v7.5H148.3z"/>
	<path fill="#4E4E56" d="M182.9,152.2h-8.3l9.2-49.8h10.6l9.2,49.8h-8.3l-1.5-11h-9.4L182.9,152.2z M185.6,133.7h6.9l-3.4-21.4H189
		L185.6,133.7z"/>
	<path fill="#4E4E56" d="M210.2,109.8H202v-7.5h25.1v7.5h-8.3v42.4h-8.6V109.8z"/>
	<path fill="#4E4E56" d="M232.6,152.2v-49.8h8.6v49.8H232.6z"/>
	<path fill="#4E4E56" d="M256.4,152.2h-8.6v-49.8h12c9.6,0,14.5,4.1,14.5,14.7c0,8-3.1,11.3-6,12.6l7.2,22.6h-8.7l-6.1-20.6
		c-1.1,0.1-2.9,0.2-4.4,0.2V152.2z M256.4,124.7h3c4.6,0,6.4-1.7,6.4-7.7s-1.7-7.7-6.4-7.7h-3V124.7z"/>
	<path fill="#4E4E56" d="M279.7,114.4c0-7,4.1-12.8,13.1-12.8s13.1,5.7,13.1,12.8v25.7c0,7-4.1,12.8-13.1,12.8s-13.1-5.7-13.1-12.8
		V114.4z M288.2,139.9c0,3.7,1.1,5.5,4.6,5.5c3.5,0,4.6-1.8,4.6-5.5v-25.3c0-3.7-1.1-5.5-4.6-5.5c-3.5,0-4.6,1.8-4.6,5.5V139.9z"/>
	<path fill="#4E4E56" d="M311.5,152.2v-49.8h7.9l10.4,28.5h0.1v-28.5h7.7v49.8h-7.5l-10.9-31.1h-0.1v31.1H311.5z"/>
	<path fill="#4E4E56" d="M134.4,175.5c-0.3-4.3-2.6-5.5-4.6-5.5c-2.8,0-4.3,1.8-4.3,4.9c0,8.5,17.4,12.6,17.4,26.1
		c0,8.2-5.5,12.8-13.5,12.8c-7.9,0-12.5-6.4-12.8-13.8l8.1-1.2c0.3,5,2.3,7.5,5.1,7.5c3,0,5-1.6,5-4.6c0-9.9-17.4-12.5-17.4-26.8
		c0-7.9,4.8-12.4,13.3-12.4c7,0,11.1,5,11.9,12.1L134.4,175.5z"/>
	<path fill="#4E4E56" d="M165,179.8v-3.9c0-4.2-1.9-6-4.1-6c-3.5,0-4.6,1.8-4.6,5.5v25.3c0,3.7,1.1,5.5,4.6,5.5c3.1,0,4.1-1.8,4.1-5
		v-6h8.6v5.7c0,7-4.1,12.8-12.7,12.8c-9,0-13.1-5.7-13.1-12.8v-25.7c0-7,4.1-12.8,13.1-12.8c8.6,0,12.7,6.2,12.7,13.7v3.7H165z"/>
	<path fill="#4E4E56" d="M179.6,213v-49.8h8.6v20.3h9.1v-20.3h8.6V213h-8.6v-22.1h-9.1V213H179.6z"/>
	<path fill="#4E4E56" d="M212.3,175.3c0-7,4.1-12.8,13.1-12.8c9,0,13.1,5.7,13.1,12.8v25.7c0,7-4.1,12.8-13.1,12.8
		c-9,0-13.1-5.7-13.1-12.8V175.3z M220.9,200.7c0,3.7,1.1,5.5,4.6,5.5c3.5,0,4.6-1.8,4.6-5.5v-25.3c0-3.7-1.1-5.5-4.6-5.5
		c-3.5,0-4.6,1.8-4.6,5.5V200.7z"/>
	<path fill="#4E4E56" d="M245.1,175.3c0-7,4.1-12.8,13.1-12.8s13.1,5.7,13.1,12.8v25.7c0,7-4.1,12.8-13.1,12.8s-13.1-5.7-13.1-12.8
		V175.3z M253.7,200.7c0,3.7,1.1,5.5,4.6,5.5c3.5,0,4.6-1.8,4.6-5.5v-25.3c0-3.7-1.1-5.5-4.6-5.5c-3.5,0-4.6,1.8-4.6,5.5V200.7z"/>
	<path fill="#4E4E56" d="M277.5,213v-49.8h8.6v42.4h13.5v7.5H277.5z"/>
</g>
</svg>
